ISO-10303-21;
HEADER;
FILE_DESCRIPTION (( 'STEP AP214' ),
    '1' );
FILE_NAME ('Assem53.STEP',
    '2025-12-18T15:48:00',
    ( '' ),
    ( '' ),
    'SwSTEP 2.0',
    'SolidWorks 2024',
    '' );
FILE_SCHEMA (( 'AUTOMOTIVE_DESIGN' ));
ENDSEC;

DATA;
#1 = PROPERTY_DEFINITION ('document property','', #116 ) ;
#2 = APPLIED_DOCUMENT_REFERENCE ( #116,'',( #24) ) ;
#3 = PRODUCT_DEFINITION_SHAPE ( 'NONE', 'NONE',  #127 ) ;
#4 = PRODUCT_DEFINITION_CONTEXT ( 'detailed design', #97, 'design' ) ;
#5 = APPLICATION_PROTOCOL_DEFINITION ( 'draft international standard', 'automotive_design', 1998, #22 ) ;
#6 = AXIS2_PLACEMENT_3D ( 'NONE', #94, #23, #69 ) ;
#7 = OBJECT_ROLE ('mandatory',$ ) ;
#8 = IDENTIFICATION_ROLE ( 'external document id and location', $) ;
#9 = DIRECTION ( 'NONE',  ( -5.908554797324979987E-14, -0.0002423947635786712909, 0.9999999706223888785 ) ) ;
#10 = APPLIED_EXTERNAL_IDENTIFICATION_ASSIGNMENT ( 'Female Header Pitch 2.54mm 1x19.STEP' , #55, #29,( #78) ) ;
#11 = DIRECTION ( 'NONE',  ( 0.000000000000000000, 0.000000000000000000, 1.000000000000000000 ) ) ;
#12 =( REPRESENTATION_RELATIONSHIP ('NONE','NONE', #65, #90 ) REPRESENTATION_RELATIONSHIP_WITH_TRANSFORMATION ( #76 )SHAPE_REPRESENTATION_RELATIONSHIP( ) );
#13 = ITEM_DEFINED_TRANSFORMATION ( 'NONE', 'NONE', #6,  #119 ) ;
#14 = PRODUCT ( 'Assem53', 'Assem53', '', ( #71 ) ) ;
#15 = SHAPE_REPRESENTATION ( 'NODEMCU-32S assem', ( #25 ), #58 ) ;
#16 = PRODUCT_DEFINITION_FORMATION_WITH_SPECIFIED_SOURCE ( 'Symmetric', '', #43, .NOT_KNOWN. ) ;
#17 = SHAPE_DEFINITION_REPRESENTATION ( #70, #15 ) ;
#18 = PRODUCT_DEFINITION_CONTEXT ( 'detailed design', #84, 'design' ) ;
#19 = DOCUMENT_TYPE ( 'geometry' ) ;
#20 = PRODUCT_DEFINITION_SHAPE ( 'NONE', 'NONE',  #129 ) ;
#21 = UNCERTAINTY_MEASURE_WITH_UNIT (LENGTH_MEASURE( 1.000000000000000082E-05 ), #59, 'distance_accuracy_value', 'NONE');
#22 = APPLICATION_CONTEXT ( 'automotive_design' ) ;
#23 = DIRECTION ( 'NONE',  ( -3.444826124271647541E-20, 0.9999998417502845571, 0.0005625827991950576278 ) ) ;
#24 = PRODUCT_DEFINITION ( 'General', '', #122, #4 ) ;
#25 = AXIS2_PLACEMENT_3D ( 'NONE', #113, #11, #38 ) ;
#26 = ITEM_DEFINED_TRANSFORMATION ( 'NONE', 'NONE', #44,  #25 ) ;
#27 = EXTERNAL_SOURCE (IDENTIFIER('') ) ;
#28 = PROPERTY_DEFINITION_REPRESENTATION ( #50, #15 ) ;
#29 = EXTERNAL_SOURCE (IDENTIFIER('') ) ;
#30 = PRODUCT_RELATED_PRODUCT_CATEGORY ( 'part', '', ( #99 ) ) ;
#31 = PROPERTY_DEFINITION ('external definition','', #78 ) ;
#32 = DIRECTION ( 'NONE',  ( 0.000000000000000000, 0.000000000000000000, 1.000000000000000000 ) ) ;
#33 = CONTEXT_DEPENDENT_SHAPE_REPRESENTATION ( #46, #3 ) ;
#34 = APPLICATION_PROTOCOL_DEFINITION ( 'draft international standard', 'automotive_design', 1998, #97 ) ;
#35 = APPLIED_DOCUMENT_REFERENCE ( #78,'',( #81) ) ;
#36 = APPLICATION_PROTOCOL_DEFINITION ( 'draft international standard', 'automotive_design', 1998, #117 ) ;
#37 = AXIS2_PLACEMENT_3D ( 'NONE', #72, #82, #75 ) ;
#38 = DIRECTION ( 'NONE',  ( 1.000000000000000000, 0.000000000000000000, 0.000000000000000000 ) ) ;
#39 = DIRECTION ( 'NONE',  ( 1.007078207797984333E-16, 0.9999999706223888785, 0.0002423947635786712909 ) ) ;
#40 = PROPERTY_DEFINITION ('document property','', #78 ) ;
#41 = PROPERTY_DEFINITION_REPRESENTATION ( #80, #90 ) ;
#42 = PRODUCT_RELATED_PRODUCT_CATEGORY ( 'part', '', ( #43 ) ) ;
#43 = PRODUCT ( 'Female Header Pitch 2.54mm 1x19', 'Female Header Pitch 2.54mm 1x19', '', ( #106 ) ) ;
#44 = AXIS2_PLACEMENT_3D ( 'NONE', #121, #93, #112 ) ;
#45 = CONTEXT_DEPENDENT_SHAPE_REPRESENTATION ( #12, #20 ) ;
#46 =( REPRESENTATION_RELATIONSHIP ('NONE','NONE', #65, #15 ) REPRESENTATION_RELATIONSHIP_WITH_TRANSFORMATION ( #26 )SHAPE_REPRESENTATION_RELATIONSHIP( ) );
#47 =( GEOMETRIC_REPRESENTATION_CONTEXT ( 3 ) GLOBAL_UNCERTAINTY_ASSIGNED_CONTEXT ( ( #21 ) ) GLOBAL_UNIT_ASSIGNED_CONTEXT ( ( #59, #74, #83 ) ) REPRESENTATION_CONTEXT ( 'NONE', 'WORKASPACE' ) );
#48 = DOCUMENT_TYPE ( 'geometry' ) ;
#49 = PRODUCT_DEFINITION_CONTEXT ( 'detailed design', #107, 'design' ) ;
#50 = PROPERTY_DEFINITION ('external definition','', #116 ) ;
#51 =( NAMED_UNIT ( * ) SI_UNIT ( $, .STERADIAN. ) SOLID_ANGLE_UNIT ( ) );
#52 = PRODUCT_RELATED_PRODUCT_CATEGORY ( 'part', '', ( #14 ) ) ;
#53 = ROLE_ASSOCIATION ( #60, #35 ) ;
#54 = EXTERNAL_SOURCE (IDENTIFIER('') ) ;
#55 = IDENTIFICATION_ROLE ( 'external document id and location', $) ;
#56 = APPLIED_DOCUMENT_REFERENCE ( #95,'',( #81) ) ;
#57 = ROLE_ASSOCIATION ( #77, #2 ) ;
#58 =( GEOMETRIC_REPRESENTATION_CONTEXT ( 3 ) GLOBAL_UNCERTAINTY_ASSIGNED_CONTEXT ( ( #108 ) ) GLOBAL_UNIT_ASSIGNED_CONTEXT ( ( #91, #126, #51 ) ) REPRESENTATION_CONTEXT ( 'NONE', 'WORKASPACE' ) );
#59 =( LENGTH_UNIT ( ) NAMED_UNIT ( * ) SI_UNIT ( .MILLI., .METRE. ) );
#60 = OBJECT_ROLE ('mandatory',$ ) ;
#61 = APPLIED_EXTERNAL_IDENTIFICATION_ASSIGNMENT ( 'NODEMCU-32S assem.STEP' , #8, #54,( #116) ) ;
#62 = PROPERTY_DEFINITION_REPRESENTATION ( #88, #90 ) ;
#63 = PRODUCT_CONTEXT ( 'NONE', #73, 'mechanical' ) ;
#64 = SHAPE_DEFINITION_REPRESENTATION ( #105, #65 ) ;
#65 = SHAPE_REPRESENTATION ( 'Assem53', ( #37, #44, #6, #109 ), #47 ) ;
#66 = PRODUCT_DEFINITION_FORMATION_WITH_SPECIFIED_SOURCE ( 'Symmetric', '', #14, .NOT_KNOWN. ) ;
#67 = PRODUCT_DEFINITION ( 'General', '', #66, #18 ) ;
#68 = CARTESIAN_POINT ( 'NONE',  ( 0.000000000000000000, 0.000000000000000000, 0.000000000000000000 ) ) ;
#69 = DIRECTION ( 'NONE',  ( 6.123233026736725653E-17, 0.0005625827991950576278, -0.9999998417502845571 ) ) ;
#70 = PRODUCT_DEFINITION_SHAPE ( 'NONE', 'NONE',  #24 ) ;
#71 = PRODUCT_CONTEXT ( 'NONE', #117, 'mechanical' ) ;
#72 = CARTESIAN_POINT ( 'NONE',  ( 0.000000000000000000, 0.000000000000000000, 0.000000000000000000 ) ) ;
#73 = APPLICATION_CONTEXT ( 'automotive_design' ) ;
#74 =( NAMED_UNIT ( * ) PLANE_ANGLE_UNIT ( ) SI_UNIT ( $, .RADIAN. ) );
#75 = DIRECTION ( 'NONE',  ( 1.000000000000000000, 0.000000000000000000, 0.000000000000000000 ) ) ;
#76 = ITEM_DEFINED_TRANSFORMATION ( 'NONE', 'NONE', #109,  #119 ) ;
#77 = OBJECT_ROLE ('mandatory',$ ) ;
#78 = DOCUMENT_FILE ( 'Female Header Pitch 2.54mm 1x19.STEP' , '', '', #87, '' ,$ ) ;
#79 =( REPRESENTATION_RELATIONSHIP ('NONE','NONE', #65, #90 ) REPRESENTATION_RELATIONSHIP_WITH_TRANSFORMATION ( #13 )SHAPE_REPRESENTATION_RELATIONSHIP( ) );
#80 = PROPERTY_DEFINITION ('external definition','', #95 ) ;
#81 = PRODUCT_DEFINITION ( 'General', '', #16, #49 ) ;
#82 = DIRECTION ( 'NONE',  ( 0.000000000000000000, 0.000000000000000000, 1.000000000000000000 ) ) ;
#83 =( NAMED_UNIT ( * ) SI_UNIT ( $, .STERADIAN. ) SOLID_ANGLE_UNIT ( ) );
#84 = APPLICATION_CONTEXT ( 'automotive_design' ) ;
#85 = APPLICATION_PROTOCOL_DEFINITION ( 'draft international standard', 'automotive_design', 1998, #73 ) ;
#86 = SHAPE_DEFINITION_REPRESENTATION ( #111, #90 ) ;
#87 = DOCUMENT_TYPE ( 'geometry' ) ;
#88 = PROPERTY_DEFINITION ('document property','', #95 ) ;
#89 = IDENTIFICATION_ROLE ( 'external document id and location', $) ;
#90 = SHAPE_REPRESENTATION ( 'Female Header Pitch 2.54mm 1x19', ( #119 ), #102 ) ;
#91 =( LENGTH_UNIT ( ) NAMED_UNIT ( * ) SI_UNIT ( .MILLI., .METRE. ) );
#92 =( NAMED_UNIT ( * ) SI_UNIT ( $, .STERADIAN. ) SOLID_ANGLE_UNIT ( ) );
#93 = DIRECTION ( 'NONE',  ( 0.000000000000000000, 0.000000000000000000, 1.000000000000000000 ) ) ;
#94 = CARTESIAN_POINT ( 'NONE',  ( 761.5172394170582493, 852.6155278667000630, 1296.012880209147170 ) ) ;
#95 = DOCUMENT_FILE ( 'Female Header Pitch 2.54mm 1x19.STEP' , '', '', #19, '' ,$ ) ;
#96 = PRODUCT_DEFINITION_SHAPE ( 'NONE', 'NONE',  #128 ) ;
#97 = APPLICATION_CONTEXT ( 'automotive_design' ) ;
#98 = PROPERTY_DEFINITION_REPRESENTATION ( #31, #90 ) ;
#99 = PRODUCT ( 'NODEMCU-32S assem', 'NODEMCU-32S assem', '', ( #63 ) ) ;
#100 = CARTESIAN_POINT ( 'NONE',  ( 558.5838634910923020, 852.4033365674104061, 1250.040610620299731 ) ) ;
#101 = APPLICATION_PROTOCOL_DEFINITION ( 'draft international standard', 'automotive_design', 1998, #107 ) ;
#102 =( GEOMETRIC_REPRESENTATION_CONTEXT ( 3 ) GLOBAL_UNCERTAINTY_ASSIGNED_CONTEXT ( ( #118 ) ) GLOBAL_UNIT_ASSIGNED_CONTEXT ( ( #110, #103, #92 ) ) REPRESENTATION_CONTEXT ( 'NONE', 'WORKASPACE' ) );
#103 =( NAMED_UNIT ( * ) PLANE_ANGLE_UNIT ( ) SI_UNIT ( $, .RADIAN. ) );
#104 = PROPERTY_DEFINITION_REPRESENTATION ( #1, #15 ) ;
#105 = PRODUCT_DEFINITION_SHAPE ( 'NONE', 'NONE',  #67 ) ;
#106 = PRODUCT_CONTEXT ( 'NONE', #22, 'mechanical' ) ;
#107 = APPLICATION_CONTEXT ( 'automotive_design' ) ;
#108 = UNCERTAINTY_MEASURE_WITH_UNIT (LENGTH_MEASURE( 1.000000000000000082E-05 ), #91, 'distance_accuracy_value', 'NONE');
#109 = AXIS2_PLACEMENT_3D ( 'NONE', #100, #39, #9 ) ;
#110 =( LENGTH_UNIT ( ) NAMED_UNIT ( * ) SI_UNIT ( .MILLI., .METRE. ) );
#111 = PRODUCT_DEFINITION_SHAPE ( 'NONE', 'NONE',  #81 ) ;
#112 = DIRECTION ( 'NONE',  ( 1.000000000000000000, 0.000000000000000000, 0.000000000000000000 ) ) ;
#113 = CARTESIAN_POINT ( 'NONE',  ( 0.000000000000000000, 0.000000000000000000, 0.000000000000000000 ) ) ;
#114 = ROLE_ASSOCIATION ( #7, #56 ) ;
#115 = APPLIED_EXTERNAL_IDENTIFICATION_ASSIGNMENT ( 'Female Header Pitch 2.54mm 1x19.STEP' , #89, #27,( #95) ) ;
#116 = DOCUMENT_FILE ( 'NODEMCU-32S assem.STEP' , '', '', #48, '' ,$ ) ;
#117 = APPLICATION_CONTEXT ( 'automotive_design' ) ;
#118 = UNCERTAINTY_MEASURE_WITH_UNIT (LENGTH_MEASURE( 1.000000000000000082E-05 ), #110, 'distance_accuracy_value', 'NONE');
#119 = AXIS2_PLACEMENT_3D ( 'NONE', #68, #32, #123 ) ;
#120 = APPLICATION_PROTOCOL_DEFINITION ( 'draft international standard', 'automotive_design', 1998, #84 ) ;
#121 = CARTESIAN_POINT ( 'NONE',  ( 660.1115682873632977, 860.8919510356554383, 1273.177669595929046 ) ) ;
#122 = PRODUCT_DEFINITION_FORMATION_WITH_SPECIFIED_SOURCE ( 'Symmetric', '', #99, .NOT_KNOWN. ) ;
#123 = DIRECTION ( 'NONE',  ( 1.000000000000000000, 0.000000000000000000, 0.000000000000000000 ) ) ;
#124 = PROPERTY_DEFINITION_REPRESENTATION ( #40, #90 ) ;
#125 = CONTEXT_DEPENDENT_SHAPE_REPRESENTATION ( #79, #96 ) ;
#126 =( NAMED_UNIT ( * ) PLANE_ANGLE_UNIT ( ) SI_UNIT ( $, .RADIAN. ) );
#127 = NEXT_ASSEMBLY_USAGE_OCCURRENCE ( 'NAUO1', ' ', ' ', #67, #24, $ ) ;
#128 = NEXT_ASSEMBLY_USAGE_OCCURRENCE ( 'NAUO2', ' ', ' ', #67, #81, $ ) ;
#129 = NEXT_ASSEMBLY_USAGE_OCCURRENCE ( 'NAUO3', ' ', ' ', #67, #81, $ ) ;
ENDSEC;
END-ISO-10303-21;
