ISO-10303-21;
HEADER;
FILE_DESCRIPTION (( 'STEP AP214' ),
    '1' );
FILE_NAME ('Assem2 final.STEP',
    '2025-12-18T17:57:15',
    ( '' ),
    ( '' ),
    'SwSTEP 2.0',
    'SolidWorks 2024',
    '' );
FILE_SCHEMA (( 'AUTOMOTIVE_DESIGN' ));
ENDSEC;

DATA;
#1 = AXIS2_PLACEMENT_3D ( 'NONE', #83, #84, #64 ) ;
#2 = AXIS2_PLACEMENT_3D ( 'NONE', #37, #7, #28 ) ;
#3 = IDENTIFICATION_ROLE ( 'external document id and location', $) ;
#4 = PRODUCT_CONTEXT ( 'NONE', #75, 'mechanical' ) ;
#5 = DOCUMENT_FILE ( 'Female Header Pitch 2.54mm 1x4 red.STEP' , '', '', #51, '' ,$ ) ;
#6 = PRODUCT_DEFINITION_SHAPE ( 'NONE', 'NONE',  #107 ) ;
#7 = DIRECTION ( 'NONE',  ( 0.000000000000000000, 0.000000000000000000, 1.000000000000000000 ) ) ;
#8 = DIRECTION ( 'NONE',  ( 0.000000000000000000, 0.000000000000000000, 1.000000000000000000 ) ) ;
#9 = SHAPE_DEFINITION_REPRESENTATION ( #35, #11 ) ;
#10 = PROPERTY_DEFINITION_REPRESENTATION ( #87, #73 ) ;
#11 = SHAPE_REPRESENTATION ( 'Display 1.3 OLED (Mauro) v5.step', ( #81 ), #21 ) ;
#12 = APPLIED_EXTERNAL_IDENTIFICATION_ASSIGNMENT ( 'Female Header Pitch 2.54mm 1x4 red.STEP' , #19, #101,( #5) ) ;
#13 = APPLIED_EXTERNAL_IDENTIFICATION_ASSIGNMENT ( 'Display 1.3 OLED (Mauro) v5.step.STEP' , #3, #39,( #61) ) ;
#14 = PRODUCT_DEFINITION_SHAPE ( 'NONE', 'NONE',  #47 ) ;
#15 =( NAMED_UNIT ( * ) PLANE_ANGLE_UNIT ( ) SI_UNIT ( $, .RADIAN. ) );
#16 = CARTESIAN_POINT ( 'NONE',  ( 0.000000000000000000, 0.000000000000000000, 0.000000000000000000 ) ) ;
#17 = UNCERTAINTY_MEASURE_WITH_UNIT (LENGTH_MEASURE( 1.000000000000000082E-05 ), #53, 'distance_accuracy_value', 'NONE');
#18 = PROPERTY_DEFINITION_REPRESENTATION ( #43, #73 ) ;
#19 = IDENTIFICATION_ROLE ( 'external document id and location', $) ;
#20 = DIRECTION ( 'NONE',  ( 1.000000000000000000, 0.000000000000000000, 0.000000000000000000 ) ) ;
#21 =( GEOMETRIC_REPRESENTATION_CONTEXT ( 3 ) GLOBAL_UNCERTAINTY_ASSIGNED_CONTEXT ( ( #17 ) ) GLOBAL_UNIT_ASSIGNED_CONTEXT ( ( #53, #15, #29 ) ) REPRESENTATION_CONTEXT ( 'NONE', 'WORKASPACE' ) );
#22 = AXIS2_PLACEMENT_3D ( 'NONE', #74, #8, #82 ) ;
#23 = PROPERTY_DEFINITION_REPRESENTATION ( #24, #11 ) ;
#24 = PROPERTY_DEFINITION ('external definition','', #61 ) ;
#25 = PRODUCT_RELATED_PRODUCT_CATEGORY ( 'part', '', ( #89 ) ) ;
#26 = DOCUMENT_TYPE ( 'geometry' ) ;
#27 =( LENGTH_UNIT ( ) NAMED_UNIT ( * ) SI_UNIT ( .MILLI., .METRE. ) );
#28 = DIRECTION ( 'NONE',  ( 1.000000000000000000, 0.000000000000000000, 0.000000000000000000 ) ) ;
#29 =( NAMED_UNIT ( * ) SI_UNIT ( $, .STERADIAN. ) SOLID_ANGLE_UNIT ( ) );
#30 = DIRECTION ( 'NONE',  ( 0.000000000000000000, 0.000000000000000000, 1.000000000000000000 ) ) ;
#31 =( NAMED_UNIT ( * ) SI_UNIT ( $, .STERADIAN. ) SOLID_ANGLE_UNIT ( ) );
#32 = ITEM_DEFINED_TRANSFORMATION ( 'NONE', 'NONE', #2,  #1 ) ;
#33 = APPLICATION_PROTOCOL_DEFINITION ( 'draft international standard', 'automotive_design', 1998, #75 ) ;
#34 = ROLE_ASSOCIATION ( #105, #48 ) ;
#35 = PRODUCT_DEFINITION_SHAPE ( 'NONE', 'NONE',  #49 ) ;
#36 = CARTESIAN_POINT ( 'NONE',  ( 0.000000000000000000, 0.000000000000000000, 0.000000000000000000 ) ) ;
#37 = CARTESIAN_POINT ( 'NONE',  ( -3.853287198144159653, 0.8289754437197189851, -11.04000000000000092 ) ) ;
#38 = PRODUCT_RELATED_PRODUCT_CATEGORY ( 'part', '', ( #52 ) ) ;
#39 = EXTERNAL_SOURCE (IDENTIFIER('') ) ;
#40 = ITEM_DEFINED_TRANSFORMATION ( 'NONE', 'NONE', #22,  #81 ) ;
#41 = CONTEXT_DEPENDENT_SHAPE_REPRESENTATION ( #58, #79 ) ;
#42 = APPLICATION_PROTOCOL_DEFINITION ( 'draft international standard', 'automotive_design', 1998, #98 ) ;
#43 = PROPERTY_DEFINITION ('external definition','', #5 ) ;
#44 = PRODUCT_DEFINITION_SHAPE ( 'NONE', 'NONE',  #71 ) ;
#45 =( LENGTH_UNIT ( ) NAMED_UNIT ( * ) SI_UNIT ( .MILLI., .METRE. ) );
#46 = AXIS2_PLACEMENT_3D ( 'NONE', #36, #104, #20 ) ;
#47 = PRODUCT_DEFINITION ( 'General', '', #103, #67 ) ;
#48 = APPLIED_DOCUMENT_REFERENCE ( #5,'',( #71) ) ;
#49 = PRODUCT_DEFINITION ( 'General', '', #60, #90 ) ;
#50 = PROPERTY_DEFINITION_REPRESENTATION ( #92, #11 ) ;
#51 = DOCUMENT_TYPE ( 'geometry' ) ;
#52 = PRODUCT ( 'Female Header Pitch 2.54mm 1x4 red', 'Female Header Pitch 2.54mm 1x4 red', '', ( #76 ) ) ;
#53 =( LENGTH_UNIT ( ) NAMED_UNIT ( * ) SI_UNIT ( .MILLI., .METRE. ) );
#54 = APPLICATION_PROTOCOL_DEFINITION ( 'draft international standard', 'automotive_design', 1998, #80 ) ;
#55 =( GEOMETRIC_REPRESENTATION_CONTEXT ( 3 ) GLOBAL_UNCERTAINTY_ASSIGNED_CONTEXT ( ( #99 ) ) GLOBAL_UNIT_ASSIGNED_CONTEXT ( ( #45, #91, #97 ) ) REPRESENTATION_CONTEXT ( 'NONE', 'WORKASPACE' ) );
#56 = APPLICATION_CONTEXT ( 'automotive_design' ) ;
#57 = PRODUCT_DEFINITION_FORMATION_WITH_SPECIFIED_SOURCE ( 'Symmetric', '', #52, .NOT_KNOWN. ) ;
#58 =( REPRESENTATION_RELATIONSHIP ('NONE','NONE', #94, #73 ) REPRESENTATION_RELATIONSHIP_WITH_TRANSFORMATION ( #32 )SHAPE_REPRESENTATION_RELATIONSHIP( ) );
#59 = APPLICATION_PROTOCOL_DEFINITION ( 'draft international standard', 'automotive_design', 1998, #86 ) ;
#60 = PRODUCT_DEFINITION_FORMATION_WITH_SPECIFIED_SOURCE ( 'Symmetric', '', #89, .NOT_KNOWN. ) ;
#61 = DOCUMENT_FILE ( 'Display 1.3 OLED (Mauro) v5.step.STEP' , '', '', #26, '' ,$ ) ;
#62 = OBJECT_ROLE ('mandatory',$ ) ;
#63 = PRODUCT ( 'Assem2 final', 'Assem2 final', '', ( #96 ) ) ;
#64 = DIRECTION ( 'NONE',  ( 1.000000000000000000, 0.000000000000000000, 0.000000000000000000 ) ) ;
#65 = PRODUCT_DEFINITION_CONTEXT ( 'detailed design', #66, 'design' ) ;
#66 = APPLICATION_CONTEXT ( 'automotive_design' ) ;
#67 = PRODUCT_DEFINITION_CONTEXT ( 'detailed design', #80, 'design' ) ;
#68 = CONTEXT_DEPENDENT_SHAPE_REPRESENTATION ( #77, #6 ) ;
#69 =( GEOMETRIC_REPRESENTATION_CONTEXT ( 3 ) GLOBAL_UNCERTAINTY_ASSIGNED_CONTEXT ( ( #106 ) ) GLOBAL_UNIT_ASSIGNED_CONTEXT ( ( #27, #85, #31 ) ) REPRESENTATION_CONTEXT ( 'NONE', 'WORKASPACE' ) );
#70 = APPLIED_DOCUMENT_REFERENCE ( #61,'',( #49) ) ;
#71 = PRODUCT_DEFINITION ( 'General', '', #57, #65 ) ;
#72 = APPLICATION_PROTOCOL_DEFINITION ( 'draft international standard', 'automotive_design', 1998, #56 ) ;
#73 = SHAPE_REPRESENTATION ( 'Female Header Pitch 2.54mm 1x4 red', ( #1 ), #55 ) ;
#74 = CARTESIAN_POINT ( 'NONE',  ( 0.000000000000000000, 0.000000000000000000, 0.000000000000000000 ) ) ;
#75 = APPLICATION_CONTEXT ( 'automotive_design' ) ;
#76 = PRODUCT_CONTEXT ( 'NONE', #86, 'mechanical' ) ;
#77 =( REPRESENTATION_RELATIONSHIP ('NONE','NONE', #94, #11 ) REPRESENTATION_RELATIONSHIP_WITH_TRANSFORMATION ( #40 )SHAPE_REPRESENTATION_RELATIONSHIP( ) );
#78 = ROLE_ASSOCIATION ( #62, #70 ) ;
#79 = PRODUCT_DEFINITION_SHAPE ( 'NONE', 'NONE',  #108 ) ;
#80 = APPLICATION_CONTEXT ( 'automotive_design' ) ;
#81 = AXIS2_PLACEMENT_3D ( 'NONE', #16, #30, #88 ) ;
#82 = DIRECTION ( 'NONE',  ( 1.000000000000000000, 0.000000000000000000, 0.000000000000000000 ) ) ;
#83 = CARTESIAN_POINT ( 'NONE',  ( 0.000000000000000000, 0.000000000000000000, 0.000000000000000000 ) ) ;
#84 = DIRECTION ( 'NONE',  ( 0.000000000000000000, 0.000000000000000000, 1.000000000000000000 ) ) ;
#85 =( NAMED_UNIT ( * ) PLANE_ANGLE_UNIT ( ) SI_UNIT ( $, .RADIAN. ) );
#86 = APPLICATION_CONTEXT ( 'automotive_design' ) ;
#87 = PROPERTY_DEFINITION ('document property','', #5 ) ;
#88 = DIRECTION ( 'NONE',  ( 1.000000000000000000, 0.000000000000000000, 0.000000000000000000 ) ) ;
#89 = PRODUCT ( 'Display 1.3 OLED (Mauro) v5.step', 'Display 1.3 OLED (Mauro) v5.step', '', ( #4 ) ) ;
#90 = PRODUCT_DEFINITION_CONTEXT ( 'detailed design', #98, 'design' ) ;
#91 =( NAMED_UNIT ( * ) PLANE_ANGLE_UNIT ( ) SI_UNIT ( $, .RADIAN. ) );
#92 = PROPERTY_DEFINITION ('document property','', #61 ) ;
#93 = SHAPE_DEFINITION_REPRESENTATION ( #14, #94 ) ;
#94 = SHAPE_REPRESENTATION ( 'Assem2 final', ( #46, #22, #2 ), #69 ) ;
#95 = PRODUCT_RELATED_PRODUCT_CATEGORY ( 'part', '', ( #63 ) ) ;
#96 = PRODUCT_CONTEXT ( 'NONE', #56, 'mechanical' ) ;
#97 =( NAMED_UNIT ( * ) SI_UNIT ( $, .STERADIAN. ) SOLID_ANGLE_UNIT ( ) );
#98 = APPLICATION_CONTEXT ( 'automotive_design' ) ;
#99 = UNCERTAINTY_MEASURE_WITH_UNIT (LENGTH_MEASURE( 1.000000000000000082E-05 ), #45, 'distance_accuracy_value', 'NONE');
#100 = APPLICATION_PROTOCOL_DEFINITION ( 'draft international standard', 'automotive_design', 1998, #66 ) ;
#101 = EXTERNAL_SOURCE (IDENTIFIER('') ) ;
#102 = SHAPE_DEFINITION_REPRESENTATION ( #44, #73 ) ;
#103 = PRODUCT_DEFINITION_FORMATION_WITH_SPECIFIED_SOURCE ( 'Symmetric', '', #63, .NOT_KNOWN. ) ;
#104 = DIRECTION ( 'NONE',  ( 0.000000000000000000, 0.000000000000000000, 1.000000000000000000 ) ) ;
#105 = OBJECT_ROLE ('mandatory',$ ) ;
#106 = UNCERTAINTY_MEASURE_WITH_UNIT (LENGTH_MEASURE( 1.000000000000000082E-05 ), #27, 'distance_accuracy_value', 'NONE');
#107 = NEXT_ASSEMBLY_USAGE_OCCURRENCE ( 'NAUO1', ' ', ' ', #47, #49, $ ) ;
#108 = NEXT_ASSEMBLY_USAGE_OCCURRENCE ( 'NAUO2', ' ', ' ', #47, #71, $ ) ;
ENDSEC;
END-ISO-10303-21;
